# xmcd
#
# Track frame offsets:
#	225
#	10278
#	21482
#	32610
#	41544
#	66818
#	79345
#	90089
#	99633
#	110297
#
# Disc length: 1599
#
# Revision: 1
# Processed by: cddbd v1.5.1PL0 Copyright (c) Steve Scherf et al.
# Submitted via: MusicManager v6.0.0.0
# Normalized: r0:DSETVAR1
#
DISCID=72063c0a
DTITLE=Various Artist - Louisiana Hayride Classic Gospel Radio Vol. 2
DYEAR=1900
DGENRE=country
TTITLE0=Cowboy Copas - The Silver that Nailed You To the Cross
TTITLE1=Johnny and Jack - Soul of Man
TTITLE2=Hawkshaw Hawkins - It Is No Secret What God Can Do
TTITLE3=Jordanaires - I'm Working on a Building
TTITLE4=Claude Gray - The Family Bible (live)
TTITLE5=Ernest Tubb - What a Friend We Have in Jesus
TTITLE6=Mallie Ann - He's Got the Whole World in His Hands
TTITLE7=Plainsmen Quartet - Up Above My Head
TTITLE8=Maddox Brothers and Rose - Just Over the Stars
TTITLE9=Jordanaired - Peace in the Valley
EXTD=
EXTT0=
EXTT1=
EXTT2=
EXTT3=
EXTT4=
EXTT5=
EXTT6=
EXTT7=
EXTT8=
EXTT9=
PLAYORDER=
